<svg id="Layer_1" data-name="Layer 1" xmlns="http://www.w3.org/2000/svg" viewBox="0 0 135 135"><defs><style>.cls-1{fill:#1d0c35;}.cls-2{fill:#fff;}</style></defs><path class="cls-1" d="M488.44,297.64a67.5,67.5,0,1,0-78,66.68V317.15H393.26V297.64H410.4V282.77c0-16.92,10.08-26.27,25.49-26.27A103.59,103.59,0,0,1,451,257.82v16.61h-8.51c-8.38,0-11,5.21-11,10.55v12.66h18.72l-3,19.51H431.49v47.17A67.52,67.52,0,0,0,488.44,297.64Z" transform="translate(-353.44 -230.14)"/><path class="cls-2" d="M446,317.15l3-19.51H430.31V285c0-5.34,2.61-10.55,11-10.55h8.51V257.82a103.77,103.77,0,0,0-15.11-1.32c-15.42,0-25.5,9.35-25.5,26.27v14.87H392.07v19.51h17.14v47.17a68.28,68.28,0,0,0,21.1,0V317.15Z" transform="translate(-353.44 -230.14)"/></svg>