<svg id="Layer_1" data-name="Layer 1" xmlns="http://www.w3.org/2000/svg" viewBox="0 0 135 135"><defs><style>.cls-1{fill:#1d0c35;}.cls-2{fill:#fff;}</style></defs><circle class="cls-1" cx="67.5" cy="67.5" r="67.5"/><path class="cls-2" d="M420.94,262.8c11.35,0,12.7,0,17.18.24a23.31,23.31,0,0,1,7.89,1.47,14.09,14.09,0,0,1,8.07,8.06,23.64,23.64,0,0,1,1.46,7.89c.2,4.49.25,5.83.25,17.18s-.05,12.69-.25,17.17a23.52,23.52,0,0,1-1.46,7.89,14.07,14.07,0,0,1-8.07,8.07,23.64,23.64,0,0,1-7.89,1.46c-4.48.21-5.83.25-17.18.25s-12.69,0-17.17-.25a23.64,23.64,0,0,1-7.89-1.46,14.07,14.07,0,0,1-8.07-8.07,23.52,23.52,0,0,1-1.46-7.89c-.2-4.48-.25-5.82-.25-17.17s0-12.69.25-17.18a23.64,23.64,0,0,1,1.46-7.89,14.09,14.09,0,0,1,8.07-8.06,23.31,23.31,0,0,1,7.89-1.47c4.48-.2,5.83-.24,17.17-.24m0-7.66c-11.54,0-13,.05-17.52.25a31.25,31.25,0,0,0-10.31,2,21.7,21.7,0,0,0-12.43,12.43,31.26,31.26,0,0,0-2,10.32c-.21,4.53-.26,6-.26,17.52s.05,13,.26,17.52a31.37,31.37,0,0,0,2,10.32,21.78,21.78,0,0,0,12.43,12.43,31,31,0,0,0,10.31,2c4.54.21,6,.26,17.52.26s13-.05,17.53-.26a31,31,0,0,0,10.31-2,21.78,21.78,0,0,0,12.43-12.43,31.37,31.37,0,0,0,2-10.32c.21-4.53.25-6,.25-17.52s0-13-.25-17.52a31.26,31.26,0,0,0-2-10.32,21.7,21.7,0,0,0-12.43-12.43,31.25,31.25,0,0,0-10.31-2c-4.54-.2-6-.25-17.53-.25Z" transform="translate(-353.44 -230.14)"/><path class="cls-2" d="M420.94,275.81a21.83,21.83,0,1,0,21.83,21.83A21.82,21.82,0,0,0,420.94,275.81Zm0,36a14.17,14.17,0,1,1,14.17-14.16A14.16,14.16,0,0,1,420.94,311.8Z" transform="translate(-353.44 -230.14)"/><circle class="cls-2" cx="90.19" cy="44.81" r="5.1"/></svg>