<svg id="Layer_1" data-name="Layer 1" xmlns="http://www.w3.org/2000/svg" viewBox="0 0 340.86 127.93"><defs><style>.cls-1{fill:#fff;}</style></defs><path class="cls-1" d="M322.49,246.71c.16.94.29,1.6.37,2a6.33,6.33,0,0,1,.13,1.46,11.27,11.27,0,0,1-1.21,5.14,7.24,7.24,0,0,1-3.3,3.39,16.53,16.53,0,0,0-4.1-3.89,23.72,23.72,0,0,0-5.3-2.67,33.45,33.45,0,0,0-6-1.55,38.09,38.09,0,0,0-6-.5,30.48,30.48,0,0,0-5.47.46,23.09,23.09,0,0,0-4.51,1.25,8.8,8.8,0,0,0-3.09,2,3.71,3.71,0,0,0-1.13,2.67,6.48,6.48,0,0,0,2.25,3.72,31.13,31.13,0,0,0,4.93,3.68c1.95,1.19,4.11,2.38,6.48,3.55s4.69,2.28,7,3.34q4.26,2,7.35,3.72a22.2,22.2,0,0,1,5.1,3.76,13.59,13.59,0,0,1,3,4.64,17.3,17.3,0,0,1,1,6.26,22.13,22.13,0,0,1-1.42,8,18.68,18.68,0,0,1-4.14,6.47,19.11,19.11,0,0,1-6.56,4.31,22.87,22.87,0,0,1-8.6,1.54A40.09,40.09,0,0,1,289.14,308,48.07,48.07,0,0,1,279,304.07a30.39,30.39,0,0,1-7.85-5.68,9.68,9.68,0,0,1-3.14-6.81,12.91,12.91,0,0,1,1-4.26,17.74,17.74,0,0,1,3.47-5.43,13,13,0,0,0,2.72,5.93,24,24,0,0,0,7.39,6.35,36,36,0,0,0,9.49,3.89,38,38,0,0,0,9.15,1.21,20.74,20.74,0,0,0,7.6-1.17,13.93,13.93,0,0,0,4.6-2.8,10,10,0,0,0,2.34-3.3,10.33,10.33,0,0,0,.75-2.67,5,5,0,0,0-1.55-3.22,18.17,18.17,0,0,0-3.92-3c-1.65-1-3.55-2-5.73-3s-4.43-2-6.77-3c-3.51-1.55-6.53-3-9.06-4.38a34.92,34.92,0,0,1-6.27-4.18,14.12,14.12,0,0,1-3.59-4.47,12.05,12.05,0,0,1-1.13-5.35,15.46,15.46,0,0,1,2.84-8.86,17.57,17.57,0,0,1,8.19-6.35,23.67,23.67,0,0,1,5.72-1.67,37.41,37.41,0,0,1,6-.5,39.19,39.19,0,0,1,10.78,1.5A81.2,81.2,0,0,1,322.49,246.71Z" transform="translate(-250.52 -233.67)"/><path class="cls-1" d="M349.06,301.19a6.44,6.44,0,0,1-2.13-3.34,13.56,13.56,0,0,1-.54-3.43,9.87,9.87,0,0,1,.41-3c-.22,0-.72.45-1.5,1.34s-1.63,1.94-2.55,3.16-1.82,2.42-2.71,3.59-1.56,2-2,2.58a13,13,0,0,1-2,1.83,4.14,4.14,0,0,1-1.54.75,9.47,9.47,0,0,1-2.8-.46,11.27,11.27,0,0,1-2.76-1.31,9.69,9.69,0,0,1-2.26-2,6.29,6.29,0,0,1-1.29-2.69q0-2.34.12-3.84a22.89,22.89,0,0,1,.55-3.26,66,66,0,0,1,2.21-7.19A75.56,75.56,0,0,1,331.6,276a54.13,54.13,0,0,1,4.3-7.27,22.09,22.09,0,0,1,5.05-5.31,13.26,13.26,0,0,1,1.76.13,11.29,11.29,0,0,1,2.05.45,16.67,16.67,0,0,1,2,.8,5.1,5.1,0,0,1,1.63,1.21,66.11,66.11,0,0,0-3.8,5.6,95.07,95.07,0,0,0-6.81,13.7c-.28.62-.61,1.51-1,2.68s-.78,2.39-1.17,3.68-.71,2.53-1,3.76a14.72,14.72,0,0,0-.38,2.92,1.89,1.89,0,0,0,.21,1,2.69,2.69,0,0,0,.37.5A9.61,9.61,0,0,0,338,297.1q1.92-2.27,5.35-6.94c.55-.78,1.21-1.67,2-2.67s1.52-2.08,2.3-3.22,1.52-2.33,2.21-3.55a24.32,24.32,0,0,0,1.72-3.68c.22-.67.51-1.46.88-2.38a27.76,27.76,0,0,1,1.33-2.88,31.29,31.29,0,0,1,1.84-3,17.6,17.6,0,0,1,2.47-2.89,12.62,12.62,0,0,1,2.34.25,20.67,20.67,0,0,1,2.38.63,11.65,11.65,0,0,1,2,.84,4.1,4.1,0,0,1,1.25,1q-1.5,3.68-3.34,7.27c-1.22,2.39-2.37,4.75-3.42,7.06a61.45,61.45,0,0,0-2.68,6.89,22.25,22.25,0,0,0-1.08,6.69,13.67,13.67,0,0,0,.29,3.05,16,16,0,0,0,.62,2.17c.23.59.44,1.07.63,1.46a2.27,2.27,0,0,1,.29,1c0,.05-.05.13-.16.25a.29.29,0,0,1-.17.08,5.8,5.8,0,0,1-1.5-.25,17.44,17.44,0,0,1-2.05-.71c-.75-.31-1.51-.65-2.26-1A22.12,22.12,0,0,1,349.06,301.19Z" transform="translate(-250.52 -233.67)"/><path class="cls-1" d="M381.15,262.5a8.88,8.88,0,0,1,4.09,3,15.55,15.55,0,0,1,2.85,5,41.3,41.3,0,0,1-2.85,5.44q-1.92,3.17-3.84,6.47t-3.47,6.27a15.5,15.5,0,0,0-1.79,4.89q1.33-1.43,3-3.3t3.18-3.76q1.55-1.89,2.88-3.43c.89-1,1.59-1.8,2.09-2.3,1.06-1.11,2.31-2.41,3.76-3.88a59.74,59.74,0,0,1,4.55-4.18,34,34,0,0,1,4.81-3.35A9.16,9.16,0,0,1,404.8,268a4.89,4.89,0,0,1,3.63,1.46,12.54,12.54,0,0,1,2.3,3c0,.11-.21.26-.63.46a7,7,0,0,0-1.79,1.63,32.57,32.57,0,0,0-2.63,4.13c-1,1.76-1.93,3.65-2.85,5.69a47.42,47.42,0,0,0-2.29,6.22,20.68,20.68,0,0,0-.92,5.77,4.32,4.32,0,0,0,.54,2.67,2,2,0,0,0,1.55.59,5,5,0,0,0,1.92-.42,4.45,4.45,0,0,1,1.59-.42,1.26,1.26,0,0,1,.54.71,2.79,2.79,0,0,1,.21,1,13.68,13.68,0,0,1-1.59,1.17,19.88,19.88,0,0,1-1.92,1.09,19.06,19.06,0,0,1-2,.84,5.34,5.34,0,0,1-1.71.33,9.63,9.63,0,0,1-4-.71,6.1,6.1,0,0,1-2.42-1.88,6.78,6.78,0,0,1-1.21-2.8,16.74,16.74,0,0,1-.34-3.47,17.35,17.35,0,0,1,.17-2.25,19.4,19.4,0,0,1,.67-3c.33-1.14.81-2.51,1.42-4.1s1.39-3.49,2.34-5.72a16.72,16.72,0,0,0-2.26,1.17,21.8,21.8,0,0,0-4.51,3.59,102.16,102.16,0,0,0-7.06,7.44q-3.14,3.67-6.39,8.19-1.85,2.6-3.22,4.39a9.52,9.52,0,0,1-2.38,2.38,6.1,6.1,0,0,1-2.59-2.8,17.73,17.73,0,0,1-1.26-3.72,23,23,0,0,1,.46-4c.31-1.62.73-3.41,1.26-5.39s1.18-4.05,2-6.23,1.64-4.34,2.59-6.51A86.94,86.94,0,0,1,377.85,267C379.6,264.23,380.7,262.72,381.15,262.5Z" transform="translate(-250.52 -233.67)"/><path class="cls-1" d="M441.57,275.05a16,16,0,0,1-.55,3.3,16.69,16.69,0,0,1-1.13,3.09,11,11,0,0,1-1.42,2.3,2,2,0,0,1-1.42.92c-.61-.05-1-.47-1.08-1.25a2.6,2.6,0,0,1,.21-.8c.13-.36.29-.76.46-1.21s.32-.89.46-1.33a4.34,4.34,0,0,0,.2-1.17,3.43,3.43,0,0,0-.54-2,1.68,1.68,0,0,0-1.46-.79c-2.23,0-3.93,1.38-5.1,4.16s-1.75,6.84-1.75,12.22a3.14,3.14,0,0,0,.08,1h5.85a1.84,1.84,0,0,1,.08.66,1.48,1.48,0,0,1-.33,1.08c-1.28.28-2.3.52-3.05.71a14.3,14.3,0,0,0-1.71.54,1.29,1.29,0,0,0-.71.54,1.94,1.94,0,0,0-.13.79c0,.45,0,.89,0,1.33s0,1,0,1.67q0,7-3.8,11.24T414.24,317a6.73,6.73,0,0,1-2.42-.67,11.67,11.67,0,0,1-4.35-3.55,7.06,7.06,0,0,1-1.17-2.3,14.46,14.46,0,0,1,1.34-6.1,17,17,0,0,1,3.63-5.14,18.6,18.6,0,0,1,5.44-3.62,16.49,16.49,0,0,1,6.81-1.39,20,20,0,0,0-.42-4.11c-.28-1.34-.57-2.65-.88-3.9s-.6-2.49-.88-3.7a15.65,15.65,0,0,1-.41-3.57,11.65,11.65,0,0,1,.91-4.48,17.25,17.25,0,0,1,2.43-4.12,15.41,15.41,0,0,1,3.51-3.23,12.82,12.82,0,0,1,4.18-1.85,8,8,0,0,1,2.46,1.47,32.77,32.77,0,0,1,3.05,2.71,30.81,30.81,0,0,1,2.68,3.05A7.81,7.81,0,0,1,441.57,275.05ZM414,313.16a13.74,13.74,0,0,0,3.8-2.43,18.56,18.56,0,0,0,3.14-3.59,19.29,19.29,0,0,0,2.13-4.26,13.29,13.29,0,0,0,.79-4.43,9.59,9.59,0,0,0-3.68,1.55,21.74,21.74,0,0,0-3.76,3.09,21,21,0,0,0-2.92,3.72,6.68,6.68,0,0,0-1.17,3.34A3.53,3.53,0,0,0,414,313.16Z" transform="translate(-250.52 -233.67)"/><path class="cls-1" d="M441.57,301.61a48,48,0,0,1,.58-6.89q.59-4,1.71-8.49t2.68-9.44q1.54-4.94,3.47-9.86,1.67-4.43,3.88-8.94t4.81-8.86q2.58-4.35,5.39-8.27a90,90,0,0,1,5.64-7.19,13.84,13.84,0,0,1,2.88.33,23.64,23.64,0,0,1,3,.88,15.39,15.39,0,0,1,2.67,1.3,10.86,10.86,0,0,1,2,1.5,142.47,142.47,0,0,0-11.28,13A80.35,80.35,0,0,0,461,263q-1.59,3.18-2.89,5.94c-.86,1.83-1.65,3.66-2.38,5.47s-1.38,3.62-2,5.43-1.13,3.72-1.63,5.72Q468.23,265.1,476,265.09a9.65,9.65,0,0,1,4.68,1.42,15.09,15.09,0,0,1,4.43,3.85,62.88,62.88,0,0,0-5.34,6.85q-2.76,4-5.06,8.06a73,73,0,0,0-3.76,7.52,15,15,0,0,0-1.46,5.14,1.79,1.79,0,0,0,.25,1.13,1.42,1.42,0,0,0,1.08.29,5.07,5.07,0,0,0,2-.33,3.76,3.76,0,0,1,.92-.33,5.81,5.81,0,0,1,.5.91,1.59,1.59,0,0,1,.08.42c0,.23-.33.54-1,1a20.61,20.61,0,0,1-2.38,1.26c-.92.41-1.83.79-2.72,1.12a6.32,6.32,0,0,1-2,.51,3.48,3.48,0,0,1-1.67-.46,5,5,0,0,1-1.47-1.22,6.39,6.39,0,0,1-1-1.67,5,5,0,0,1-.37-1.92,14.64,14.64,0,0,1,.71-3.72q.7-2.46,2-5.76t3-7.23q1.75-3.93,3.76-8a.3.3,0,0,0-.34-.34,4,4,0,0,0-1.29.67c-.7.45-1.35.89-2,1.34a44.78,44.78,0,0,0-6.06,5.55,84.56,84.56,0,0,0-5.94,7.23,93.09,93.09,0,0,0-5.43,8.32,74.47,74.47,0,0,0-4.39,8.81,3.23,3.23,0,0,1-.75,1.09,1.37,1.37,0,0,1-.83.5c-.17,0-.41-.19-.71-.58a6.32,6.32,0,0,1-.84-1.47c-.25-.58-.49-1.18-.71-1.79A4.85,4.85,0,0,1,441.57,301.61Z" transform="translate(-250.52 -233.67)"/><path class="cls-1" d="M484.94,297.43a18.33,18.33,0,0,1,.12-1.88c.09-.75.24-1.75.46-3s.52-2.77.88-4.55.82-3.93,1.38-6.44q.17-.82.75-2.67a30.79,30.79,0,0,1,1.55-3.89,25.62,25.62,0,0,1,2.34-4,8.58,8.58,0,0,1,3.3-2.84,15.13,15.13,0,0,1,3.76,1.72,12.69,12.69,0,0,1,4,3.8,29.4,29.4,0,0,0-3.22,4.34,44.86,44.86,0,0,0-2.34,4.52q-1.05,2.34-1.92,4.84c-.59,1.67-1.24,3.43-2,5.27q-.92,2.34-1.67,4.8a17.66,17.66,0,0,0-.83,4.31c0,1,0,1.71,0,2.13s-.19.62-.46.62a4.72,4.72,0,0,1-1.34-.41,8,8,0,0,1-2.05-1.3,9.17,9.17,0,0,1-1.88-2.21A5.84,5.84,0,0,1,484.94,297.43Zm16-36.27a6.7,6.7,0,0,1,.25-1.5,3.26,3.26,0,0,1-.71-1.25,4.5,4.5,0,0,1-.29-1.51,13.43,13.43,0,0,1,.2-2c.14-.86.32-1.79.55-2.79s.5-2.05.83-3.14.67-2.07,1-3a7.37,7.37,0,0,1,2.46.54,19,19,0,0,1,3,1.42,19.88,19.88,0,0,1,2.76,1.92,12,12,0,0,1,1.92,2c-.62.62-1.42,1.47-2.43,2.55s-2,2.23-2.92,3.43-1.81,2.33-2.59,3.38a19.77,19.77,0,0,0-1.51,2.26,3.25,3.25,0,0,1-1.75-.88A2,2,0,0,1,500.9,261.16Z" transform="translate(-250.52 -233.67)"/><path class="cls-1" d="M518.11,262.5a9,9,0,0,1,4.1,3,15.52,15.52,0,0,1,2.84,5,41.08,41.08,0,0,1-2.84,5.44q-1.94,3.17-3.85,6.47t-3.47,6.27a15.5,15.5,0,0,0-1.79,4.89q1.33-1.43,3-3.3t3.18-3.76q1.54-1.89,2.88-3.43c.89-1,1.59-1.8,2.09-2.3,1.06-1.11,2.31-2.41,3.76-3.88a58,58,0,0,1,4.56-4.18,33.37,33.37,0,0,1,4.8-3.35,9.19,9.19,0,0,1,4.43-1.37,4.93,4.93,0,0,1,3.64,1.46,12.49,12.49,0,0,1,2.29,3c0,.11-.21.26-.62.46a6.78,6.78,0,0,0-1.8,1.63,32.57,32.57,0,0,0-2.63,4.13c-1,1.76-1.92,3.65-2.84,5.69a46.09,46.09,0,0,0-2.3,6.22,20.68,20.68,0,0,0-.92,5.77,4.32,4.32,0,0,0,.54,2.67,2,2,0,0,0,1.55.59,5,5,0,0,0,1.92-.42,4.45,4.45,0,0,1,1.59-.42,1.26,1.26,0,0,1,.54.71,2.79,2.79,0,0,1,.21,1,13.68,13.68,0,0,1-1.59,1.17,19.88,19.88,0,0,1-1.92,1.09,18.93,18.93,0,0,1-2,.84,5.39,5.39,0,0,1-1.72.33,9.63,9.63,0,0,1-4-.71,6.17,6.17,0,0,1-2.42-1.88,6.92,6.92,0,0,1-1.21-2.8,16.61,16.61,0,0,1-.17-5.72,20.68,20.68,0,0,1,.67-3c.33-1.14.81-2.51,1.42-4.1s1.39-3.49,2.34-5.72a17.44,17.44,0,0,0-2.26,1.17,21.8,21.8,0,0,0-4.51,3.59,102.16,102.16,0,0,0-7.06,7.44q-3.14,3.67-6.39,8.19-1.84,2.6-3.22,4.39a9.52,9.52,0,0,1-2.38,2.38,6.1,6.1,0,0,1-2.59-2.8,17.15,17.15,0,0,1-1.25-3.72,22.8,22.8,0,0,1,.45-4c.31-1.62.73-3.41,1.26-5.39s1.18-4.05,2-6.23,1.64-4.34,2.59-6.51A88.18,88.18,0,0,1,514.81,267C516.57,264.23,517.66,262.72,518.11,262.5Z" transform="translate(-250.52 -233.67)"/><path class="cls-1" d="M579.62,268.43a28.9,28.9,0,0,1-1.84,8.9,19.42,19.42,0,0,1-4.31,6.52,30.94,30.94,0,0,1-6.81,5.06,74,74,0,0,1-9.36,4.34c0,.34,0,.69,0,1.05s0,.74,0,1.13a14.75,14.75,0,0,0,.17,2.25,8.65,8.65,0,0,0,.58,2.17,4.12,4.12,0,0,0,1.17,1.63,2.88,2.88,0,0,0,1.92.63,10.43,10.43,0,0,0,4.43-1,23,23,0,0,0,4.14-2.47,33.76,33.76,0,0,0,3.68-3.17c1.14-1.14,2.15-2.19,3.05-3.14.55.51,1,1,1.42,1.42a40.12,40.12,0,0,1-8.23,8.32,23.4,23.4,0,0,1-8.49,4.22,13.76,13.76,0,0,1-9-4.22,12.29,12.29,0,0,1-3.22-8.57,26.59,26.59,0,0,1,1-7,34.37,34.37,0,0,1,2.68-6.86,39.5,39.5,0,0,1,4-6.22,32.78,32.78,0,0,1,4.93-5.1,23.81,23.81,0,0,1,5.43-3.43,13.62,13.62,0,0,1,5.56-1.25Q576.27,264.16,579.62,268.43Zm-5.77,2.76a12.49,12.49,0,0,0-4.68,1.84,19.41,19.41,0,0,0-4.55,4,31.3,31.3,0,0,0-3.89,5.85,33.9,33.9,0,0,0-2.76,7.19,37.37,37.37,0,0,0,11.12-8.23A17.11,17.11,0,0,0,573.85,271.19Z" transform="translate(-250.52 -233.67)"/><path class="cls-1" d="M444.4,329.73V316.1h-2.23v-2.27h6.05a17.25,17.25,0,0,1,3.74.3,4,4,0,0,1,2.2,1.52,4.52,4.52,0,0,1,1,2.87,4.6,4.6,0,0,1-.57,2.29,3.67,3.67,0,0,1-1.67,1.54,4.49,4.49,0,0,1,2.33,1.73,4.79,4.79,0,0,1,.82,2.76,4.92,4.92,0,0,1-.61,2.45,4.47,4.47,0,0,1-1.61,1.7,6.47,6.47,0,0,1-2.2.81,20.06,20.06,0,0,1-3.26.2h-6.18v-2.27Zm2.75-8.33h1.71a4.13,4.13,0,0,0,2.73-.69,2.55,2.55,0,0,0,.78-2c0-1.72-1.17-2.59-3.51-2.59h-1.71Zm0,8.33h1a15.89,15.89,0,0,0,3-.2,2.64,2.64,0,0,0,1.54-.95,3,3,0,0,0,.59-1.93,2.86,2.86,0,0,0-.56-1.8,2.79,2.79,0,0,0-1.47-1,10.25,10.25,0,0,0-2.53-.24h-1.56Z" transform="translate(-250.52 -233.67)"/><path class="cls-1" d="M476.36,326.31H465.72a4.58,4.58,0,0,0,1.39,2.83,4.06,4.06,0,0,0,2.93,1.09,4.83,4.83,0,0,0,4.12-2.09l2.2,1a6.69,6.69,0,0,1-2.79,2.47,8.39,8.39,0,0,1-3.58.8,7.22,7.22,0,0,1-4.95-1.81,6.15,6.15,0,0,1-2.06-4.88,6.29,6.29,0,0,1,2-4.79,6.54,6.54,0,0,1,4.61-1.89,6.82,6.82,0,0,1,4.62,1.84A7.18,7.18,0,0,1,476.36,326.31Zm-2.57-1.8a4.5,4.5,0,0,0-1.38-2.42,3.87,3.87,0,0,0-2.76-1.07,3.6,3.6,0,0,0-2.54,1,4.16,4.16,0,0,0-1.3,2.52Z" transform="translate(-250.52 -233.67)"/><path class="cls-1" d="M496.54,326.31H485.9a4.58,4.58,0,0,0,1.39,2.83,4.07,4.07,0,0,0,2.94,1.09,4.82,4.82,0,0,0,4.11-2.09l2.2,1a6.63,6.63,0,0,1-2.79,2.47,8.39,8.39,0,0,1-3.58.8,7.22,7.22,0,0,1-4.95-1.81,6.15,6.15,0,0,1-2.06-4.88,6.29,6.29,0,0,1,2-4.79,6.54,6.54,0,0,1,4.61-1.89,6.82,6.82,0,0,1,4.62,1.84A7.14,7.14,0,0,1,496.54,326.31Zm-2.56-1.8a4.59,4.59,0,0,0-1.39-2.42,3.86,3.86,0,0,0-2.75-1.07,3.61,3.61,0,0,0-2.55,1,4.16,4.16,0,0,0-1.3,2.52Z" transform="translate(-250.52 -233.67)"/><path class="cls-1" d="M505.51,329.8v-8.23H503v-2.21h4.53v2.85a5.05,5.05,0,0,1,1.17-1.85,3.72,3.72,0,0,1,1.57-1,8.54,8.54,0,0,1,2.27-.24h.65v2.51h-.49a8,8,0,0,0-2.83.38,2.51,2.51,0,0,0-1.39,1.38A9.73,9.73,0,0,0,508,327v2.79h2.76V332H503v-2.2Z" transform="translate(-250.52 -233.67)"/><path class="cls-1" d="M546.59,324.61l2.37,1.32a8,8,0,0,1-3.22,4.7,9.63,9.63,0,0,1-5.58,1.66,8.6,8.6,0,0,1-6.62-2.68A9.35,9.35,0,0,1,531,323a9.45,9.45,0,0,1,2.51-6.89,8.79,8.79,0,0,1,6.55-2.56,9.25,9.25,0,0,1,6,1.95v-1.66h2.36v5.84h-2.36a5.87,5.87,0,0,0-2.41-2.75,6.62,6.62,0,0,0-3.44-1,5.69,5.69,0,0,0-4.46,2,7.16,7.16,0,0,0-1.74,4.95,7,7,0,0,0,1.86,5,6,6,0,0,0,4.43,1.94,6.05,6.05,0,0,0,3.83-1.35A7.21,7.21,0,0,0,546.59,324.61Z" transform="translate(-250.52 -233.67)"/><path class="cls-1" d="M556.1,325.68a6.39,6.39,0,0,1,1.93-4.8,6.53,6.53,0,0,1,4.72-1.88,6.61,6.61,0,0,1,4.69,1.85,7,7,0,0,1,0,9.67,6.62,6.62,0,0,1-4.7,1.85,6.48,6.48,0,0,1-6.65-6.69Zm2.63,0a4.23,4.23,0,0,0,1.16,3.07,3.85,3.85,0,0,0,2.86,1.2,3.8,3.8,0,0,0,2.87-1.21,4.62,4.62,0,0,0,0-6.12,3.86,3.86,0,0,0-2.85-1.2,3.76,3.76,0,0,0-2.89,1.23A4.28,4.28,0,0,0,558.73,325.67Z" transform="translate(-250.52 -233.67)"/><path class="cls-1" d="M576.23,332v-3.21h3.21V332Z" transform="translate(-250.52 -233.67)"/><path class="cls-1" d="M589,339.69a2.69,2.69,0,0,0-.76.12l-.23.11-.5.23a110.08,110.08,0,0,1-21.8,7.35c-15.5,3.55-31.74,4.39-47.82,3.71a325.59,325.59,0,0,1-48-6c-7.92-1.51-15.78-3.31-23.6-5.23s-15.58-4.06-23.31-6.29a332.29,332.29,0,0,0-49.49-10.8c-8.47-1.15-17-2-25.63-2.28a239.52,239.52,0,0,0-25.84.31A188.06,188.06,0,0,0,272.12,331a139.85,139.85,0,0,0-20.25,9l-.65.37a1.76,1.76,0,0,0-.7,1.36,2.19,2.19,0,0,0,2.37,1.93,3.19,3.19,0,0,0,.63-.08l.75-.29a167.77,167.77,0,0,1,20.53-6.51A207.09,207.09,0,0,1,322.64,331a277.67,277.67,0,0,1,48.12,3.92,380,380,0,0,1,46.8,11,426.42,426.42,0,0,0,49,11.47,286,286,0,0,0,51.13,4.21c17.2-.28,34.66-2.47,50.69-7.93a97.06,97.06,0,0,0,21.69-10.36l.54-.34.28-.2a1.66,1.66,0,0,0,.48-1.14A2.18,2.18,0,0,0,589,339.69Z" transform="translate(-250.52 -233.67)"/></svg>