<svg id="Layer_1" data-name="Layer 1" xmlns="http://www.w3.org/2000/svg" viewBox="0 0 135 135"><defs><style>.cls-1{fill:#1d0c35;}.cls-2{fill:#fff;}</style></defs><circle class="cls-1" cx="67.5" cy="67.5" r="67.5"/><path class="cls-2" d="M464.06,276a11.24,11.24,0,0,0-7.95-8c-7-1.88-35.17-1.88-35.17-1.88s-28.14,0-35.16,1.88a11.24,11.24,0,0,0-7.95,8c-1.89,7-1.89,21.66-1.89,21.66s0,14.64,1.89,21.66a11.27,11.27,0,0,0,7.95,8c7,1.88,35.16,1.88,35.16,1.88s28.15,0,35.17-1.88a11.27,11.27,0,0,0,7.95-8c1.88-7,1.88-21.66,1.88-21.66S465.94,283,464.06,276Zm-52.12,35.16v-27l23.39,13.5Z" transform="translate(-353.44 -230.14)"/></svg>